@startuml Create Subject - Class Diagram
!theme plain
skinparam classAttributeIconSize 0
hide circle
skinparam circledCharacterRadius 0

class SubjectController {
  - subjectService : SubjectService
  + create(request : SubjectCreateRequest) : Response<SubjectDTO>
}

class SubjectService {
  - subjectRepository : SubjectRepository
  - subjectMapper : SubjectMapper
  - majorRepository : MajorRepository
  - majorMapper : MajorMapper
  + create(request : SubjectCreateRequest) : SubjectDTO
}

interface SubjectRepository <<interface>> {
  + existsByCode(code : String) : boolean
  + existsByName(name : String) : boolean
  + save(entity : Subject) : Subject
  + countAllClassesBySubjectId(subjectId : Short) : long
  + countActiveClassesBySubjectId(subjectId : Short) : long
}

interface SubjectMapper <<interface>> {
  + toEntity(request : SubjectCreateRequest) : Subject
  + toDTO(entity : Subject) : SubjectDTO
}

interface MajorRepository <<interface>> {
  + findByIdIn(ids : Collection<Short>) : List<Major>
}

interface MajorMapper <<interface>> {
  + toDTO(entity : Major) : MajorDTO
}

class Subject {
  - id : Short
  - name : String
  - code : String
  - majors : Set<Major>
  - academicClasses : Set<AcademicClass>
}

class Major {
  - id : Short
  - name : String
  - code : String
  - subjects : Set<Subject>
  - studentProfiles : Set<StudentProfile>
}

class BaseEntity {
  - isActive : Boolean
  - createdAt : Instant
  - updatedAt : Instant
}

class SubjectCreateRequest {
  - name : String
  - code : String
  - majorIds : List<Short>
}

class SubjectDTO {
  - id : Short
  - name : String
  - code : String
  - majors : List<MajorDTO>
  - totalClass : Integer
  - totalActiveClass : Integer
}

class MajorDTO {
  - id : Short
  - name : String
  - code : String
  - totalSubject : Integer
}

class BaseDTO {
  - isActive : Boolean
  - createdAt : Instant
  - updatedAt : Instant
}

class Response<T> {
  - status : int
  - message : String
  - code : String
  - data : T
}

SubjectController --> SubjectService
SubjectService --> SubjectRepository
SubjectService --> SubjectMapper
SubjectService --> MajorRepository
SubjectService --> MajorMapper

SubjectController ..> Response : <<use>>
SubjectController ..> SubjectDTO : <<use>>
SubjectController ..> SubjectCreateRequest : <<use>>
SubjectService ..> Subject : <<use>>
SubjectService ..> SubjectDTO : <<use>>
SubjectService ..> SubjectCreateRequest : <<use>>
SubjectService ..> Major : <<use>>
SubjectService ..> MajorDTO : <<use>>
SubjectRepository ..> Subject : <<use>>
SubjectMapper ..> Subject : <<use>>
SubjectMapper ..> SubjectDTO : <<use>>
SubjectMapper ..> SubjectCreateRequest : <<use>>
MajorRepository ..> Major : <<use>>
MajorMapper ..> Major : <<use>>
MajorMapper ..> MajorDTO : <<use>>

Subject --|> BaseEntity
Major --|> BaseEntity
SubjectDTO --|> BaseDTO
MajorDTO --|> BaseDTO

Subject *-- Major

@enduml
